<svg id="svg3" xmlns="http://www.w3.org/2000/svg" viewBox="0 0 522.44 95.15"><defs><style>.cls-1{fill:#8cd13d;}</style></defs><path id="ultrasecreto" class="cls-1" d="M.19,27.71v.16l.73,1.28L.85,31l0,.32.35.48c.38,0,.8-.43,1.25-1.22l.33,0,.17.16-.29.67L3,32v.16l-1-.11Q.28,32.63.31,33.12v.16l.74,1.6a54.63,54.63,0,0,0,10.28-1.19l.2.64L14.65,34l13-.35a19.52,19.52,0,0,0,8-1.73h.16l-.28,1v.16l1-.21,8.69-.3h.33A7.59,7.59,0,0,0,50,30.84l-.88-1.27,1.13-.38a2.34,2.34,0,0,0,1.84.72l-.12.83L52,31.88l.34.32.49,0a5.28,5.28,0,0,0,2.11-.44l1,.28v-.17l.16-.17,0-.65c-.06-1.2-.31-1.79-.74-1.77a3.87,3.87,0,0,0,.52-2.49l-.41-1.62-.81.21L49,27.12l-.33,0,.28-1q0-.78-17.1-.26l-3.44.19A99.78,99.78,0,0,0,10.89,28.3l.62-.86,0-.32Zm12.72,1.47,2.56-1.45A2.09,2.09,0,0,0,16,29.18l0,.82-.66,0-1.61.58-.88-1.1Zm13.31,0,.31-.35.49,0a5.52,5.52,0,0,1,2.5.69l-.3.67.35.31.81-.21,0,.66-.81.2-.82.05,0,.33-.49,0ZM9.87,30.65l1.46-.24,0,.66A1.56,1.56,0,0,1,9.94,32l.12-.83Zm32.77,4.69a1.51,1.51,0,0,0-1.43.9v.16l1.8-.09c.84-.05,1.35.15,1.51.58l-.46.68v.16c.05,1,.9,1.54,2.55,1.67L47.76,39a7.29,7.29,0,0,0-1-3.07l-.81.21ZM13,37.06q-3.15.16-3.39,4.28l0,.33.63-.52.33,0v.33a1,1,0,0,0-.94.7c0,.22.34.31,1,.28v.16c0,.14-.47.38-1.44.73v.17a4.81,4.81,0,0,1,2.17.54c1.71,1.88,2.69,2.82,2.94,2.8h.32a3.77,3.77,0,0,1,1.91-1.25l0,.33c-.07,1.31-.53,2-1.38,2l-.66-.13a2.79,2.79,0,0,1-2.46-3l-1.46.07a1.17,1.17,0,0,0-1.25,1.38A4.44,4.44,0,0,1,10.67,49a2.33,2.33,0,0,0-1,2.19l.11,2.13c0,.33.74.45,2.16.38l1.31-.07A12.43,12.43,0,0,0,16.62,53a3.19,3.19,0,0,1-2.88,1.46h-.16a8.93,8.93,0,0,1-3.65-.63L9.78,54,10,55.45l.43,11.31c.43,3.6.85,5.38,1.26,5.36l1.3-.4a2.65,2.65,0,0,0,.56,1.45c1.55.16,2.33.45,2.35.86l0,.49-.47.52-2.32-.37c-.43.08-.64.25-.63.52v.17c1.17,2.46,2,3.67,2.33,3.65h.33a3.54,3.54,0,0,1,2.24-1.11l.49,0,6.11.5,1-.22.71.95v.33l-.15.17-.51-.3c-2.75-.27-4.14-.58-4.15-.93l-1.63.41-1,0-1.82-.23-.94.87q4.88,5.34,13.56,4.88,4.45-.39,5.21-.93A18.13,18.13,0,0,0,42,81.71q8.49-4.39,7.77-21.11L49.42,55c-.06-1.2-.53-1.78-1.4-1.73A4,4,0,0,0,49,50a17.25,17.25,0,0,0-.69-3.9l-1,0v.16l.53.63v.17l-1.8.09-.34-.31c.14-.36,1-1,2.53-1.78v-.16l-.17-.15.7-2.34-.35-.48h-.17l-.15.17c0,.33-.09.5-.31.51l-.32,0a2.27,2.27,0,0,1-1-1.1l0-.32,1.5.41c.17,0,.36-.45.59-1.34,0-.44-.86-.61-2.49-.53l-3.44.35c-.32,0-.48.13-.47.35v.16c0,.17.46.47,1.36.92l-.46.52-2.55-1.36.48-.19-.87-.94.31-.34c0,.55.16.82.37.8l.49,0c.44,0,1-.54,1.57-1.56l-.35-.31L41,38.22c-1.41.27-2.11.58-2.09.94L39,41.29c0,.21.24.31.67.29a7.11,7.11,0,0,0,3.37,1.47h.16c.22,0,.36-.35.44-1h.16q0,.52,1,1.26L41,44.63l-1.65-.24-.16.17L39.25,49c.09,1.74.54,2.92,1.34,3.54h-.17a1,1,0,0,0-1.08,1.2l.38,1c1,.85,1.55,1.53,1.58,2.05v.16l-.16.17L40,56.67h-.16l-.16.17.45,2.28,0,8.72.1,2,.21,1V71l-.83-.28c-.22,0-.4.79-.54,2.33a1.92,1.92,0,0,0,.55,1.12c-2.82.53-4.21,1.1-4.18,1.7V76a20.69,20.69,0,0,1,4.63.73v.17c-.84,0-1.38.23-1.61.57L37.59,77a6.2,6.2,0,0,0-2.25.94v-.16q0-.28,1.11-.72V76.9a4.82,4.82,0,0,1-1.84-.72l-.49,0,0,.33c.44,0,.66.18.68.46l0,.49-.48.19-.5-.14v-.16l.16-.18,0-.65-.17-.16-1.63.25q-7.86.42-10.36-3.23l-1.52-4a2.81,2.81,0,0,0-1.43.9h-.17l0-.33c.11-.44.59-.69,1.44-.73l-.28-5.41a5.61,5.61,0,0,0-.44-2.11q.33,0,.27-1.17l0-.65a4,4,0,0,0-1.45-2.55c1.1-.06,1.59-1.12,1.48-3.2l-.73-4.56.11-1-.17-.15a5.92,5.92,0,0,0-2.1.77l-.34-.32c0-.68.53-1.36,1.69-2.06l1,.12a9,9,0,0,0,.35-2.81L19.38,43Q18,36.79,13.16,37.05Zm27.91-.48a1.82,1.82,0,0,0-1.59,1.07l0,.49h.33a1.61,1.61,0,0,0,1.6-.91v-.16ZM41,48.08c0-.77.58-1.35,1.88-1.74.84-.05,1.35.14,1.51.57-.77,0-1.14.28-1.12.72v.16l-1-.27a1.9,1.9,0,0,1-1.12.55Zm4.5,1.24a1.72,1.72,0,0,1,1.59-.9l.83.12,0,.32-.16.18-.34-.31a2.15,2.15,0,0,1-1.28.72l-.49,0Zm-35,9.39.32,0a2.29,2.29,0,0,1,2.38,1.36l-.11,1-.82,0A3.38,3.38,0,0,1,10.52,58.71Zm35.72,1.41h.16l.16-.18,1.64-.08.17.15a.88.88,0,0,1-.62.69c-1,0-1.49-.14-1.51-.58ZM18.76,62.39l.33,0v.16l-.33,0ZM3.85,88.3l-.15.18L3.88,95v.16l.34.31L38,93.74c1.18-1.37,2-2.07,2.35-2.09q.82.15.84.45l-2.07,1.26,0,.32,20-1L58.87,91l.06-5.1c0-.33-.14-.49-.35-.47l-14.42.75.39,1.29-.61.86,0,.33.65,0,1.51.42,0,.49.4,1.45v.17a18,18,0,0,1-5.94-.51v-.33c1.6-.82,2.38-1.58,2.34-2.26V87.9L40.8,88v-.33c1.19-.17,1.77-.58,1.73-1.24h-.16l-.18-.15L12.7,87.84l-.15.17c0,.55-.07.83-.29.84l-.15.17c0-.76-.83-1.11-2.36-1l-5.07.43ZM12,93.62l.48-.18,1.67.4c-.05.22-.31.45-.79.7L12,94ZM44.22,25.4l-.31.35.34,6.55.34.31L93.75,30c.3,0,.47-.79.53-2.33l-.4-4.58-.35-.31Zm26.57,2.39,1.29-.56c0,.46.48.82,1.37,1.07v.17c-1.31.07-1.95.37-1.93.92l-.49,0,.11-1.16ZM57.21,35.07l-1.46.41q-3.34,2.06-2.93,9.84L52.9,47l1.19,13.25.33,12.46c.54,5.23,1,7.84,1.39,7.82q1.14,2.24,6.18,2l1.15-.06,9.48-.83,6.73-.19,5.55-.62q3.61-.18,3.45-3.14l0-1q-.92-3.41-2.64-3.31a1.84,1.84,0,0,1-1.12.55l-.32,0-1-.93-4.24.55L64.34,74,63.21,52.34,63,52.18c-.55,0-.83-.07-.84-.28L62,51.74l-.11-2-.37-1,.49,0,.17.16c0,.33.13.48.35.47l.33,0,.16-.17-.24-7.54a15.31,15.31,0,0,0-1.08-5q-.87-1.76-3.54-1.62Zm39.5,48.37L47.23,86l-.16.17c.19,1.42.45,2.22.79,2.43a2.32,2.32,0,0,0-.57,1.67l.14,2.62.34.31,49.32-2.58.31-.35-.35-6.55Zm5.82-61.26L80.74,23.32l-.15.18L81,27.42v3.12l.17.16.16-.18,7.7-.24,2.62-.3,0-.33c-.67-.18-1-.39-1-.6l0-.5c1.65.27,2.72.77,3.2,1.48l1.13-.22,20-1,20-.88v-.17l.16-.17-.36-6.88-1.3.39-4.62-.25-.81,0a3.38,3.38,0,0,0-1.62.58l.56,1.29,0,.32q-.94.06-2.07-1.86l-11.64.45a6.28,6.28,0,0,0-3.23,1,2.44,2.44,0,0,0-2-.72l-1.15.06c-2.38.48-3.56,1-3.53,1.5h-.17C102.94,22.6,102.75,22.17,102.53,22.18ZM90.64,24.12l1.49.25v.16l-.6,1h-.33c-.25,0-.43-.3-.54-.95Zm-7.43,2.36,1.46-.4.06,1.15-1.15.06L83.24,27Zm36.29-.42,1.72-1.4.37.8a2.25,2.25,0,0,1-1.75.91Zm4.13.61,2.1-.77.06,1.15-.66,0-1.81-.23c-.33,0-.48.35-.44,1l-.33,0-.17-.15.27-1.17.82.12Zm-23.36,2.52c.54-.79,1-1.2,1.42-1.22l.67.29c0,.55-.45.85-1.43.9Zm16.39,2.43-5.07.43-2.13.11-1.95.27v-.17l-.49,0c0,1-.47,1.53-1.55,1.72l-.37-.8L101.9,35h-.17l.14-.5c0-.27-.47-.68-1.38-1.24l.3-.51v-.16l-.16.18-6.4.17a15.64,15.64,0,0,0-4.39.88c-.84.62-1.22,1.74-1.14,3.35l0,.65c.06.55.18.82.38.81.07,1.33,2,2,5.85,2l2.13-.11q5.66-.3,6.76.47l.71,16.72a44.91,44.91,0,0,0,1.19,7,10.31,10.31,0,0,0-.64,3.48,4.27,4.27,0,0,0,1.65,3.2l-.66,0c-.65,0-1,.49-.91,1.36l0,1c.16,3.14,1.91,5.08,5.23,5.81l.66,0a4.57,4.57,0,0,0,3-2l-.35-.31-.82,0-2.08.93h-.17l.61-.85c0-.25-.29-.39-.84-.45v-.16l.49,0,3.62.14c.55,0,.78-.86.69-2.5a3.69,3.69,0,0,0-.75-1.76q.49,0,.48-.36l-.1-2-.18-.16-1.45.41a1.06,1.06,0,0,1-1-.61v-.16h.16l.18.16h.16l2.09-.77L113.32,40l.18.15,3.41-.67c1,0,1.57-.85,1.68-2.39a11,11,0,0,0,4,1.1v.17c-.85,0-1.33.29-1.44.73v.16l.34.31,1.15-.06c2.18-.16,3.26-.49,3.23-1v-.17l-1,.05-1.14.22v-.16l-.33,0v-.33l.81-.21,2.49.53a5,5,0,0,0,1.79-3.55l0-.49q-.18-3.44-11.81-2.82Zm-6,3.6c-.06-1.09,1-2,3.3-2.8-.84,2.67-1.81,4-2.9,4.09l-.49,0v-.16l.48-.19Zm-4.91.42c0-.19.26-.37.8-.53l1.82.4c0,.54-.45.84-1.43.89l-.32,0,.12-.83Zm16.31.79a2.8,2.8,0,0,1,1.91-1.25l.5.14c-.75.92-1.33,1.38-1.73,1.4Zm-23.34,3c.43-1.22,1.11-1.86,2-1.91.5.19.79.4.85.61l0,.33-1,0a3.19,3.19,0,0,1-1.76.91Zm8.76.86c.77,0,1.17.26,1.2.92l-.29.83.18.16c1.87.17,2.82.51,2.84,1l-.31.34a4.55,4.55,0,0,0-3.33-1l.3-.51-.58-1.61Zm-.1,4.27h.16l2.85,1.17c0,.22-.3.45-.78.7l-1.82-.23.12-.83,0-.33c0-.22-.18-.32-.5-.3Zm.36,3.76,2.34.7v.16l-1.62.42h-.17v-.17h.33l0-.33c0-.33-.35-.48-1-.44v-.17Zm.78,2.43.49,0,2.85,1.16,0,.66-.16.17-1.32-.26-.31.35A2.29,2.29,0,0,1,108.48,51Zm-.72,11.37.82,0c.68.84,1.14,1.25,1.38,1.24l-.46.51a3.88,3.88,0,0,1-2-.55Zm2.81,3.3,1.64.08-.29.67-1.65-.08Zm-3.46,3,.47-.52,2.78-.15,0,.49q-2,.1-1.92.93a1.53,1.53,0,0,0-1.36-.75ZM101.46,83l-17.2,1.07c-.32,0-.48.13-.47.35l.07,1.31A4.74,4.74,0,0,0,85,88.65c-.65,0-1,.22-.95.54l.09,1.8.34.32,1.47-.08q9-.47,14.57-1.09l4.44.09c.19-1.1.38-1.66.57-1.67l.33,0v.17l-.31.51,0,.65.34.31,2-.1c1.09-.06,1.61-.47,1.57-1.23a5,5,0,0,0,2.35.86,1.28,1.28,0,0,0,1.26-1l.52.46-.3.51v.17l24.57-1.29.31-.35-.05-1a1.47,1.47,0,0,0-1.06-1.42l.78-.86-.25-1.64.07-1.64q-9.36,0-17.88.44a55.43,55.43,0,0,0-11.26,1.41,46.73,46.73,0,0,0-7.09-.45Zm4.3.6c1.78.56,2.68,1,2.7,1.34v.16h-.17L107,84.71l-.46.51c-.31,0-.55-.46-.73-1.27ZM100.3,86c0-.41.5-.82,1.57-1.23H102A3.7,3.7,0,0,1,101,86.34h-.17Zm-9.48,1H91l.23,1.14v.33l-.49,0c-.46-.52-.86-.77-1.19-.76v-.16h.17l.66.13c.33,0,.48-.24.46-.68Zm10.43,1.59.47-.51.32,0c1.2-.06,1.81.07,1.83.4v.16c0,.19-.26.37-.8.54C101.87,89.05,101.26,88.87,101.25,88.62Zm22.33-67.7-.24,1.65-.33,0-.17-.15c-.16-.87-.35-1.3-.56-1.29l-.49,0-.16.17a8.57,8.57,0,0,0,.46,2.6l1.78-.59.69.62v.16l-1.62.42-1-.11.2,3.76,10.82-.4c1.61-.19,2.51-.68,2.72-1.46q.33,0,1.05,1.26l1.46-.24,24.59-1.12a89.56,89.56,0,0,0,10.44-1.37l.54.79,3.1-.32c.55,0,.79-.65.72-1.84l-.06-1.15q-1.34-4.37-4-4.23l-1.14.06a6.11,6.11,0,0,0-2.57,1.12c0-.41-.91-.63-2.67-.68l-11.62.78c-.94,1.36-1.62,2.05-2,2.07l.39-2L145.2,20ZM159,23.5c.11-.67.25-1,.44-1,.64.73,1.21,1.08,1.7,1.06l0,.33-.15.17a4,4,0,0,1-2-.56Zm-4.06.7,1.83.56,1.3-.23.38,1-.31.34H158c0-.66-.17-1-.38-1l-1.78.43-.82,0Zm-11.39,5.36a45.25,45.25,0,0,0-6.37.66q-5.21.27-5.59,6.21l0,1a4.55,4.55,0,0,0,.94,2.25,2.56,2.56,0,0,0-.72,2c.26,1.74.52,2.61.8,2.59.74-.42,1.11-.71,1.1-.88,0-.46-.44-1-1.23-1.58l0-.49a2.75,2.75,0,0,0,1.61-.58h.17q.09,1.64,1.56,1.56l-1.73,1.4v.17l.35.47L135,44h.16l.39,1.13v.16l-3.15-.49-.29.84.87,10.3-.1,1.16c1,.08,1.49.22,1.5.41-1,.3-1.45.54-1.44.73l.27,5.08.44,2.28c-.21,0-.35.57-.4,1.67l.38,1,.64-.2c1,.2,1.51.44,1.52.74l0,.5-.49.19-1.5-.42-.31.35,0,2.46c.14.75.33,1.13.55,1.12a3.73,3.73,0,0,1,2.05-1.59l.5.14v.16l-2.87,1.63q.15,3.07,2.18,4l1.26-1h.16l0,.49c-.76.18-1.13.42-1.12.72s.47.5,1.35.59l1.13-.39a6.24,6.24,0,0,1,3.68-1.84,2.58,2.58,0,0,1,.87-2.18c0-.3-.51-.44-1.5-.41L140,71.47h-.17c0,.36-.24.64-.77.86v-.16l-.17-.15a6.53,6.53,0,0,1,2.56-1.29l-.2-.64c.28-1,.63-1.52,1.07-1.54l.66.13h.17l0-.82-.74-8,.21-2.15c0-.65.88-1,2.74-1.12a11.26,11.26,0,0,1,5,1.21c3.36,2,5.28,3,5.74,3l0,.49h-.17l-1-.12h-.16l-.16.18,0,.32q4.56,5.52,4.59,6l2.09-.77.49,0c-1.06.61-1.57,1.29-1.53,2.06v.32a2.83,2.83,0,0,0,2.46,2.83l-.13.67c0,.65.78,1.32,2.24,2l-.3.51c0,.17.46.42,1.35.75L167,74.5l.82,0,.39,1.13,1.75-.91c1.84-.37,2.74-1,2.7-1.78v-.17a5.81,5.81,0,0,0-1.81-3.19v-.16l.49,0,0-.49-.36-.47c-1.54-.17-2.32-.4-2.34-.7l.94-1,0-.49-.19-.48q-1.9-4.34-9.59-10.51c.18-.88.37-1.33.59-1.34l.33,0,.52.63q1.53-.07,2.77-3.59l1.23,1.41h.16q.28,0,.45-.84A11.24,11.24,0,0,0,170,41.48l-.06-1.15q-.26-5-5.88-8.72Q160.7,28.66,143.58,29.56Zm14,3.7,2.17.71a.89.89,0,0,1-.62.69,3.89,3.89,0,0,0-1.84-.73v-.16Zm1.79,2.86c2.13-.55,3.42-1,3.86-1.51l1.12,2.57a5.83,5.83,0,0,0-2.08.93c-.05-.9-1-1.51-2.89-1.82Zm-18,1.6q5.53-.9,5.49-1.76H147l0,.65q9.69.52,11.75,1.69c.06,1,.76,1.82,2.1,2.36-.59,1.23-1,3.49-1.12,6.79v.16l-.83-.12h-.17l-2.07,1.1,0,.49,1.31-.07c0,.22-.3.45-.78.7l-2.66-.52-.31.34v.17l.52.46H155l-.14.5v.17l1.8-.1.52.47v.16l-1.49-.25-.49,0-.31.34,0,.33c.06.22.35.42.85.61a3,3,0,0,0,1.6-.9l0,.49c0,.76.61,1.12,1.7,1.06a1.43,1.43,0,0,1-1.27.89l-2.46,0c-.23-1.3-.65-1.93-1.25-1.9-.33,0-.49.13-.48.35l.09,1.64-.65,0,0,.49.35.31.78-.69.33,0q-.08,1-1.26,1.05l-.49,0c-.44,0-.76-1-1-2.91V52H152l.17.16.49,0a2.24,2.24,0,0,0,1.74-1.24,4.43,4.43,0,0,0-3.51-1.13l-8.51.61h-.16A12.14,12.14,0,0,0,141,46.78c0-.19.26-.37.79-.53l-.37-1,.07-1.81c0-.43-.2-.64-.53-.63a11.61,11.61,0,0,0,.59-4.3Zm14.73-1.1.47-.51.65,0c.82,0,1.26.1,1.34.42l-.49.19Zm-20,4c.4-1.34,1.07-2,2-2.08l.33,0a4.62,4.62,0,0,0-1.32,3.19C136.74,41.64,136.39,41.27,136.11,40.63Zm-.84,5.79c0-.41.83-.89,2.55-1.44l.33,0a1.76,1.76,0,0,0,.71,1.11l-3.27.34h-.16l-.16.18Zm30.44,1a4.52,4.52,0,0,1,2.88-1.63h.16V46l-.16.17c-1.51.47-2.25,1-2.22,1.6v.16l.17.16h-.16Zm-31,1.78c.1-.52.31-.81.61-.85l1.32.09L135.29,50C135.1,50.05,134.92,49.78,134.76,49.24Zm3.18,10.51,1.31-.06,0,.65.38,1h-.16l-.16.18A3.9,3.9,0,0,1,138,59.92Zm-4.14,5.64.31-.34h.16c.22,0,.45.3.7.78l-.31.35Zm4,7.19H138a1.39,1.39,0,0,1,.88,1.1c0,.55-.12.88-.44,1l-.37-.8-1.61.58h-.17l0-.65C137.3,73.75,137.83,73.34,137.79,72.58Zm2.07,2a1.13,1.13,0,0,1,1.12-.71l.32,0,.35.31,0,.82h-.16Zm29,4.4-20.91,2.08L146.12,81l0,.33,2,1-.31.35-.49,0-1-.93c-.57,1.23-1.25,1.87-2,1.91v.16L145,85l-.86,2.51v.17l12-.3,6.22-.33,11.46-.93,0-.33-.32,0v-.16l1.29-.4h.16l-.28.84.34.31.33,0a4.41,4.41,0,0,0,2.07-1.26h.33c0,.76.61,1.11,1.7,1.06l.82,0,.31-.34L180.29,81l-.35-.31a1.87,1.87,0,0,0-1.12.55h-.16l-.35-.31V80.8l.15-.17c1.18-.36,1.77-.67,1.76-.91l0-.66-.34-.31-.66,0a2.67,2.67,0,0,1-1.59,1.07h-.16V79.7l.16-.17v-.17q0-.69-5.94-.51Zm-28,1.79a30,30,0,0,0-7.31,1.7v-.16c0-.25.52-.5,1.61-.74l0-.33-10,.52-.31.35,0,.49.59,5.06-.11,1v.16l.17.16.65-.2,5.91-.14c1.08-.22,1.61-.58,1.58-1.07h.16a5,5,0,0,0,3.18,1,10.84,10.84,0,0,0,4.68-1.72l0,.49a2.5,2.5,0,0,0,1.92-.92v-.16l-.18-.16-.81.21.1-1.32,0-.33-2-.39L143.16,81l-.35-.31Zm-14,2.87c0-.49.34-.84,1.09-1,1.21,0,1.81.18,1.83.4l-2.76.64Zm10.71.59c0-.19.25-.31.8-.37h.16l-.41,1.5c.14.54.43.8.86.78l0,.33-1.14.22h-.16l0-.82c0-.33-.41-.47-1.18-.43,0-.19.36-.43,1.12-.72h.16Zm9.55.49,2-.27c.54,0,.88.12,1,.44a4.42,4.42,0,0,1-2.4,1.28h-.16Zm19.13-66.06L166,19l.37,7.05.17.15,28.65-1.83,28.2-1.15.27-1.16q-.27-5-2.13-6.3Zm55.06.57,1.32.09-.13.5.22,1.13v.17l-.33,0a2.67,2.67,0,0,0-1.68-.74l-.33,0-.15.17v-.16Q221.35,19.64,221.32,19.25Zm-26.19,7.94-1.79.26q-6.09,2.91-5.8,8.51v.17c1.65.16,2.48.39,2.5.69l-2.62.13q-2.12,3.78-7.13,20.59-5,12-4.84,14.21l0,.66q1.65,4.19,5.3,4l.49,0c1.4-.08,2.55-1.12,3.45-3.14Q186.49,65,188,64l5.08-.26,12.46-.49.81-.21.6,2.1c2.5,6.34,5,9.43,7.55,9.3A5.74,5.74,0,0,0,219,71.61c0-.41-.6-1-1.73-1.71l0-.49h.17l1,.93.48-.35a11.22,11.22,0,0,0-1.74-5c-.15-1.3-.41-1.95-.76-1.93h-.17l-1.3.39v-.16c.72-.73,1.08-1.24,1.06-1.54q-4.58-9-10.77-23.75-3.71-11.15-9.93-10.81Zm.05,10.35h.16c.4,1.29.92,1.92,1.58,1.89l-.12.83,0,.49c.05.84.63,1.53,1.75,2l.1,1.8.43,2q4.07,8.78,4.11,9.48l-13.6.71.12-.83q3-8.25,2.91-10.34l-.08-1.47-.17-.16c1.07-.46,1.59-1,1.55-1.72V42l-.17-.16-.94.87.28-1c.84,0,1.54-1.45,2.08-4.21Zm-4,21.4a2,2,0,0,1,1.73-1.4l.33,0a2.44,2.44,0,0,0-.89,1.85,1.93,1.93,0,0,1-1.17-.43ZM169.44,79.31l-.31.34.28,5.24a3,3,0,0,0,.58,1.93l1.78-.42,9.84-.35a7.52,7.52,0,0,0,3.56-1,9.3,9.3,0,0,0,3.16.66l1.48-.08,2.44-.45V85q0-.33-.51-.3l0-.49.67.29,1.78-.58h.16c.19,0,.37.25.53.79l-.15.17-1.17-.43-.31.35v.32l.18.16,23.78-.92c6.34-.33,9.49-.71,9.47-1.15l-.34-6.56-.35-.31Zm60.07-63.77q-15.72,1-15.67,1.8l.31,6.07.35.31,3.6-.19a8.33,8.33,0,0,0,3.57-.85,15.74,15.74,0,0,0,4.47.59l12.61-.82h.16c.34-1.34.85-2,1.54-2.06l-.86-.77v-.17l.15-.17.35.31a7,7,0,0,1,2.64.36l-.41,1.5v.16q0,.66,4.62.42l.82-.05c2.84-.15,4.25-.44,4.23-.88v-.16l-.58-1.61v-.17l.83.12h.16l2.1-.77v.16l-1.1,1.05v.16l.17.16,1-.38h.16l-.14.5q0,.41,1.23,1.41l5.73-.3c.32-.1.47-.43.44-1l-.14-2.62-.34-.31-1.93.76h-.17l-.35-.31,0-.33,1.15-.06c.55,0,.86-.21,1-.54l-2.39-1.52,1.48-.08a1.36,1.36,0,0,0,1.27-.88v-.17L261.3,14Zm1.72,1.39c0-.19.25-.37.79-.54l2.48.2.49,0,0,.33a5.61,5.61,0,0,1-2.9,1.14h-.17l.13-.5v-.17l-.82.21Zm16.66,1.26c0-.16.2-.34.63-.53a2.78,2.78,0,0,1,1.53,1.07l0,.33-.66,0-1.5-.57Zm-3.9.86.93-1,1-.06.17.16a1.59,1.59,0,0,1-1.42,1.22l-.65,0Zm-14.75.61.46-.52.33,0c.55,0,.88.12,1,.44l0,.5-.15.17-1-.44-.33,0-.15.17v-.17Zm16.3.79.62-.69,1.15-.06,1.33.26a1.09,1.09,0,0,1-1.11.88l-2-.23ZM236.42,25a22.93,22.93,0,0,0-5.85,1.29q-9.62,4.5-9.23,12l.06,1.14a10.38,10.38,0,0,0,1.78,5.66l1-.38h.17v.33l-.49,0,0,.32A13.25,13.25,0,0,0,227,48.53c1.84,1.21,4.79,2,8.83,2.33l5,1.87q8.43,1,8.71,6.28l-.1,1.32q-.9,5.46-9.22,5.9a8.43,8.43,0,0,1-7.39-3.06q-3.84-7.52-6.13-7.4l-1.15.06c-2.05.11-3.39,1.6-4,4.48.26,1.19.56,1.78.92,1.76a16,16,0,0,0,1.37,4.2q5.44,7.59,16.63,7a23,23,0,0,0,7.95-1.89v-.17l-.17-.15-.08-1.48c-.06-1.2-.58-1.77-1.57-1.72v-.16l3.26-.5.66,0c1.64,0,2.48.28,2.5.69-1.53.08-2.26.84-2.19,2.26v.16l.17.15a2.56,2.56,0,0,0,1.44-.73c0-.22-.18-.32-.5-.3l0-.33h.33l1-.22q5.4-3.53,5.12-8.81l-.43-2c.55,0,.81-.21.8-.53l0-.5-.69-.62.23-1.82-.23-1.3q-1.9-5.16-4.37-5l-1,0v-.16l.3-.51,0-.49q-10.17-4.23-15.65-4H237v.17l2.43,2.33v.17l-.82,0c-1.86,0-2.81-.24-2.83-.67l.64-.36L236.05,43c0-.74-1.38-1.16-4-1.27l-2.78.31h-.17l0-.66-.2-.81a2.83,2.83,0,0,0,1.74-1.08l0-.49c0-.16-.41-.41-1.19-.76a14.07,14.07,0,0,1,2.72-4.41l-.21-1A3.2,3.2,0,0,1,233.27,31l-.36-.47-.06-1.15.16-.17q.45,0,1.35.75h.17A1.84,1.84,0,0,1,235.91,28l.66.13,0,.33c-1.67,1.13-2.5,1.94-2.5,2.44l.34.31.33,0a2,2,0,0,0,1.28-.72l.32,0,0,.33-.15.17c-.33,0-.49.13-.48.35s.44.47,1,.44l1-.05a1.09,1.09,0,0,0,1.12-.72l1,.77c3.89,1,5.86,2.16,5.93,3.47l1.95-.43a3.55,3.55,0,0,1,2.35.86h.16l-.2-.81q0-.5.3-.51l.68.46h.16l1.47-.24c.67.18,1,.39,1,.6l-.66,0-1-.11h-.16l.25,1.64c0,.43-.3.67-.95.7H251l-.72-1.28h-.16c-.17,0-.66,1-1.5,2.87v.17l.17.15,1.64-.25-.28,1v.17l1,0q3.9-.21,4.18-4.82c-.73-3.58-1.92-5.32-3.56-5.24-.21,0-.31.29-.28.84l-1.88,1.72a1.87,1.87,0,0,0-1.17-.43l-1.15.06a3.26,3.26,0,0,0-1.62.57l-.19-.48c-1.33-.28-2-.91-2.07-1.86l-.81.2-1.49-.25v-.16l6.87-.69,4.27.11v-.33l-.88-1.1c-3-2-5.34-3-6.89-2.93h-.17l-.15.17.37.8h-.16a20.82,20.82,0,0,0-8-1.39Zm2.36,1.19.31-.34h.17l1.66.4,0,.33-.48.19-1.67-.25Zm2.36,1v-.17c2,.2,3,.48,3,.83l-.81.21-1.64.09-.47.35.2.81v.16h-.17l-.17-.15h-.17l-1,.37,0-.32a3.76,3.76,0,0,0,1.2-2.21Zm-13.23,1.51a3.84,3.84,0,0,1,2.67.68l-2.08,1.1-.33,0v-.17l.65-.2,0-.32c-.33-.53-.67-.79-1-.77v-.18Zm9.36-.16.48-.19,1.32.1a1.76,1.76,0,0,1-1.42,1.06l-.66,0v-.16l.65-.2-.35-.47Zm-7.61,14.84c.06-.33.49-.52,1.28-.56h.17a8.22,8.22,0,0,1,3.51,1.3,5.64,5.64,0,0,1-3.69,1.67,4.8,4.8,0,0,1-3.5-1l.47-.52,4.29.43.31-.34,0-.49-.35-.48a5.7,5.7,0,0,0-2.12.44v-.16l-.32,0Zm11,3.2.13-.66c0-.35.67-.66,2.08-.93l.67.13,0,.33-.47.51-1.48.08c-.27,0-.42.24-.45.68l-.33,0Zm-2.11.61h.17l.15-.17.33,0,2,.22v.17c0,.32-.41.57-1.27.72a1.3,1.3,0,0,1-1.37-.91Zm9.34-.49,1.15-.06v.16l-.16.17v.17l.17.15c.55,0,.83.1.84.29l.17.15,0,.66-3.12.16,0-1,1.13-.39v-.16l-.17-.15Zm-11.22,2.06v-.16c1.77.4,2.66.74,2.68,1l0,.49-2.45.13-1-.27Zm8.13,1.55a3.07,3.07,0,0,1,1.58-1.23l-.13.83,0,.65-.49,0Zm5.85-1.13.31-.34a2.17,2.17,0,0,0,1.52.74v.16l-.47.52-1,0,0-.82Zm-3.09.49.31-.34,1.64.08a1.47,1.47,0,0,1-.9,1.52c-.28,0-.63-.4-1.05-1.25ZM217.28,76.79l-.31.34,0,.5a31,31,0,0,0,.59,4.89L217.49,84l3.27-.17c.87-.21,1.3-.46,1.28-.73a9.68,9.68,0,0,0,3.82.79l8.51-.78,30.31-1.59.31-.34-.36-6.72-.17-.15-7,.53ZM249,77.92c0-.22.31-.46,1-.71l.33,0v.17c-.44,0-.65.14-.64.36v.16l.17.16,1-.54.32,0c-.36.78-.73,1.19-1.08,1.2l-.33,0c0-.41-.25-.61-.69-.62Zm3.68-63.77-.31.34.12,2.3.25,1.46-.11,1.16.09,1.63c0,.17.23.32.68.46l3.76-.36,1.33.26.31-.35,0-.32c-.88-.07-1.33-.21-1.34-.43l2.13-.11.31-.34c0-.36-.91-.69-2.68-1,0-.22.36-.4,1.12-.55,1.32.15,2,.6,2.05,1.37l-.76,1.19V21l3.27-.17.16-.17a12.73,12.73,0,0,0-2-2.86l-4.31-.76h-.16c-.28,1-.52,1.51-.74,1.52q-.06-1-.54-1l-1.8.1a3,3,0,0,0,.58-1.51l.32,0,1.19.76.48-.35-1.2-.76v-.17l.16-.17,1.81.23h.17c.19,0,.39-.34.6-1a5,5,0,0,1,1.85.89c2,2.19,3.54,3.26,4.61,3.2h.16l.31-.35-1.2-1.09V17.2l3.75-.52h.16L267,17l.42,1.62,1-.21h.16a2.1,2.1,0,0,0-.58,1.34v.33l.36.48.15-.18,4,.29.66,0c.08-1,.22-1.49.41-1.5h.16l.51.3,1.3-.4v.16l.18.16c0,.16-.2.34-.63.53l.34.31,1.48-.08.31-.35-.09-1.63,1.17.26.49,0a4.72,4.72,0,0,1,2.07-1.26l.82,0,0-.49-.7-.79v-.17L282,15.4h.17a1.67,1.67,0,0,1,1.69,1.06c-1.66.09-3.63,1.23-5.89,3.43v.17h.17l.15-.18,1.64-.08,11-.25h.16a19.56,19.56,0,0,0,6.67-1.33,3.81,3.81,0,0,0,3,1l1.64-.09.31-.34-.27-5.24a3,3,0,0,0-.6-1.94l-3.26.33-1,0-14.92.46-.49,0a25.88,25.88,0,0,0-8.78,1.78c0-.6-.66-1-1.87-1.22l-.82,0-1,.38-4,2.35c-.9-1-1.47-1.57-1.72-1.56l-.28.84-.5,0,.3-.68-1.36-.75-1,.06L260,14.92c0-.66-1.2-1-3.51-1.13l-3.1.32Zm8.08.39.48-.19,1.84.73c0,.76.39,1.13,1,1.09v.17a1.77,1.77,0,0,0-1.11.71l-.33,0v-.16c-1.26-1.06-1.9-1.85-1.93-2.37Zm9.69,0,.79-.54h.33l1,.93-1.44.73-.7-1Zm-.61.85,1.16.27v.16l-.48.19c0,.22.18.32.5.3l0,.33-.65,0a1.46,1.46,0,0,1-.87-.78Zm26.8.4c-.06-1,.51-1.61,1.7-1.89.19,0,.37.25.53.79,0,.28-.7.64-2.08,1.1Zm-24.92,1.14a1.72,1.72,0,0,1,1.43-1.06l.32,0a4,4,0,0,0-.72,1.84h-.16c0-.43-.31-.64-.86-.61ZM266.12,19a1.87,1.87,0,0,0-1.12.55l1.36.75.32,0L267,20l0-.49-.52-.47Zm22.22,3.76a35,35,0,0,0-5.39.78l0,.33.85.44-.31.35-.5,0a1.74,1.74,0,0,1-1.7-1.22l-.33,0c0,.43-.29.67-1,.7a9.82,9.82,0,0,0-2.83-.67,6.75,6.75,0,0,0-3.23,1,24.93,24.93,0,0,0-5.78-.52l-2.13.12q-4.17.21-5.4,3.56c.08.44.25.65.53.63l1.47-.07.16-.18c.67.35,1,.66,1,.93l-.64.37-1.83-.56-.65,0-.31.34L262,30.24l0,.49c-1,.61-1.54,1.07-1.57,1.4l.64,9.17.22,4.09-.06,2,1.17.43h.16Q265.35,44,266.45,44v-.15l-.86-.78v-.16c.65,0,1-.16,1-.38a1.2,1.2,0,0,0-1-.6v-.17h.16c1.34.4,2,1.13,2.09,2.2l0,.49a2.6,2.6,0,0,1-.57,1.51l-1.83-.56-1,.21c-.52,2.11-1,3.18-1.47,3.2l-.34,0-1.16-.11v.17l-.15.17,0,1,.62,2.44-.24,1.81v.16l2.32.21a19.55,19.55,0,0,0,4.37-1.21v-.17l-.34-.31a1.93,1.93,0,0,1,.74-1.52l.49,0,1.2.92.62-.69L271,50.15l.31-.35,3.11-.16,9.65-.83,3.46.14v-.16l-.21-1c-.05-.81.63-1.4,2-1.75h.33a3.88,3.88,0,0,0-1.36,2.37v.16l.35.32,1.79-.1c2.84-.15,4.21-1.31,4.09-3.5v-.16a2.92,2.92,0,0,0-.75-1.77q-2.11-2.19-7.16-1.92a27.41,27.41,0,0,0-7.63,1.71v.33a7.48,7.48,0,0,1,2.49.36V44h-.33c-.31.9-.56,1.35-.75,1.36h-.33l-.17-.15v-.17l.16-.17,0-.33-1.87-1.21.14-.5v-.16l-1.46.4a19.43,19.43,0,0,0-4.8-.73l-1,0-.16.17c-.5,1.78-1.11,2.69-1.83,2.72H269a12.37,12.37,0,0,0,1.41-4.51,6.68,6.68,0,0,0-1.16-3.22c.88-.05,1.29-.56,1.24-1.55l-.54-3.91q-.06-1.14,2.73-1.29l7.56.09h.33a6.82,6.82,0,0,0,3.55-1.17h.16a.57.57,0,0,1-.13.5.63.63,0,0,1-.49.19l0,.32,6.56-.18q4.59-.24,5.09-3.22V27.2q-1.56.07-2.1-2.52l0-.33.33,0,.84.45.31-.34v-.17q-.95-1.55-6.33-1.48Zm-26,3.17a2.54,2.54,0,0,1,2.09-.93l3,.5v.16l-.81.21-4.1.05Zm17.68-1.26,2.16.54v.17l-.31.34-2.16-.38V25.2Zm-4.95,2.73.81-.21,1-.05c.33,0,.51.24.53.79l.33,0,0-.33h.17v.16A2.53,2.53,0,0,1,276,28.85c-.15-.87-.45-1.29-.89-1.27Zm-11.47,3.73,1,.11h.16l.16-.17.24,1.47c-1-.23-1.51-.47-1.52-.75Zm3.14,16.1c.63,0,1.8-.7,3.51-2l.85.45c0,.22-.42.4-1.29.56a1.13,1.13,0,0,0,.72,1.11l1.31-.07,0,.33c0,.22-.31.45-.79.7l-1.8-.07h-.17l-.15.17.37.8v.16l-1.66-.24v.17l-.15.17,0,.82-1.17-.43,0-2.47v-.16Zm14.06-1.4.48-.19,2.19,1h.16q.06,1.11-1.56,1.56h-.17V48.1l.25-1.5c-.16-.43-.61-.62-1.35-.58ZM269.07,47a2.58,2.58,0,0,0-2.08,1.1l0,.32,1.31-.06c.54,0,.86-.21,1-.55l0-.65Zm1,6.36c-.74,1-2.25,1.6-4.51,1.72l-1.64.08a5.6,5.6,0,0,1-2.15-.21v.16l-.15.17,0,.82.86.78a13,13,0,0,0-.59,4.46l.11,2.13a27.06,27.06,0,0,0,.93,5.05c.09,1.85,2.82,2.64,8.17,2.36l2.95-.15a27.94,27.94,0,0,0,6.67-1.17,57.9,57.9,0,0,0,9.39.49l2.3-.12q6.23-.33,6-4.91l-.21-.81c-1.16-1.81-3.94-2.59-8.34-2.36l-4.91.26-.46.68v.16l-2.64-.19-.65,0c-.85,0-1.33.28-1.44.73a18.35,18.35,0,0,0-6.6-.48,2.48,2.48,0,0,1-2.56-1.83c.63-.51.88-1.94.76-4.32l-.17-3.27-.35-.31ZM264.93,62c-.1-1.86.72-2.83,2.47-2.93-.34,1.88-1.11,2.86-2.31,2.92Zm5.78,3.8.48-.19,1.33.26c-.9,1.69-1.51,2.54-1.84,2.56l-.17-.16.61-.85-.05-1-.35-.48ZM289,67.27l.81-.2.65,0,.06,1.16.36.47v.17l-.49,0a4.69,4.69,0,0,1-1.4-1.57Zm14.38,4.84a14.55,14.55,0,0,0-5,1.9h-.16q0-.33,1-.54l0-.66L287,73.13a73,73,0,0,0-9,1.13v.32l.49,0,0,.33-.48.19a2.28,2.28,0,0,0-1.33-.26v-.16l.3-.51,0-.33-.17-.15-1.46.24-2.14-.06c-1.86.1-3.15.55-3.87,1.36h-.17l-1.37-1.08-.33,0c.06,1-1,1.52-3,1.63l-.33,0c-.16,0-.4-.36-.71-1.11h.16l-.35-.31-7.37.39-.31.34.24,4.59c0,.16.4.36,1.18.59a19,19,0,0,1,4.37-1.21l.5,0a4.82,4.82,0,0,1,3.84,1.28,22.24,22.24,0,0,0-4.46-.42l-.82,0a10.72,10.72,0,0,0-4.36,1.38l0,.33,8,.07L285,80.47h.16a3.24,3.24,0,0,1,2.55-1.6h.16l0,.32c-1.19.34-1.77.64-1.76.92v.16l.18.16h.16l.15-.17,1.32-.07,2.63.19.33,0a1.08,1.08,0,0,0,1.11-.88l-.37-.64v-.16c.49-.11,1.1-1,1.84-2.56.73.23,1.12.49,1.19.76V77l-1,.22v.32l.83.13,5.24-.28,1.63-.25c.05.87.56,1.29,1.55,1.23l0,.5-.48.19c-.55,0-1.23-.43-2-1.38h-.17l-.15.17-.46.69-.49,0-1-.77c-.22,0-.31.29-.28.84l-1.31.07-.63.52c0,.58,3.32.73,9.88.47l.3-.51,0-.5-.71-4.06.26-1.33a2.51,2.51,0,0,0-2.21-1.2Zm-36.28,3.7,1.46-.4h.16l.17.15-.78.7.57,1.45v.16c-1.24-.67-1.88-1.35-1.91-2Zm16.49,1.27q0-.4,1-.54c.1-.66.25-1,.44-1l.33,0c1.1,0,1.66.33,1.69.9v.17l-1.64.09-1.77.59Zm-13,2.5c0-.38.56-.69,1.75-.91l.33,0,.52.47,0,.32Zm3.13.16a.89.89,0,0,1,.95-.71L276,79v.16q-.11.5-1,.54Zm16.41-.36.48-.19.33,0-.47.52Zm4.47-67.6c-2.17.36-3.25.75-3.23,1.16l.35.31h.16q0-.49.3-.51l1.15-.06-.3.51v.16l.69.79-1.32-.26-.31.34c0,.44-.13.67-.46.69l0,2.46q.11,1.8,5.83,1.5l1.48-.08A3.86,3.86,0,0,0,302,17.47l-.35-.31-.32,0-3.09.66-.92-1.93a.89.89,0,0,1,.62-.69,6.76,6.76,0,0,0,3.5,1l1.94-.6,0-.32-1.8.09-.34-.31,0-.33,1.16.11,1-.05.16-.18,1.57,1.72v.34l-1.19-.76h-.16l-.16.17.19.48-.25,1.33c.25.65.48,1,.7.95l33.26-1.74a3.92,3.92,0,0,1,2.37-1.77H340l-.14.5.52.47-.3.51V17l8.52-.45.31-.34-.35-6.72-.18-.15-2.61.3-4.6.07-2.45.13-8.86.3-4.41.4c-.22,0-.31.29-.29.83l-1.35,2.38-1,0a2.62,2.62,0,0,0-1.44.73l-.33,0,.29-.67L321,13.2l0-.33h.17l.17.16,1.47-.08a1.61,1.61,0,0,0,.94-1v-.17l-.18-.15-1.94.59h-.16l-.53-.63c1.74-.22,2.61-.49,2.59-.79V10.6l-8.53.29-3.6.19a29.5,29.5,0,0,0-8.64,1.43c0-.32-.52-.57-1.51-.74l-1.15.06-1.29.56c0-.22-.4-.36-1.17-.43h-.16l-.16.17.38,1v.16l-.82,0a7.64,7.64,0,0,1-2.21-1.52Zm9.24.84,1.15-.06.09,1.79c-.76,0-1.17-.48-1.23-1.57Zm13.94-.41,1.8-.09c0,.76.33,1.13.88,1.1,0,.41-.67.72-2.09.93-.18,0-.38-.63-.59-1.94Zm-9.89,2.5c0-.38.57-.69,1.76-.92h.16l0,.49-.31.51-.66-.13-.81.2Zm21.42-2,1,0-.26,1.17c0,.32.35.47,1,.44,0,.3-.52.54-1.61.74a1.14,1.14,0,0,1-1.18-.6l0-.33.51.31h.17l.46-.52ZM299.22,15l1.29-.56h.16l0,.33a.58.58,0,0,0-.49.19.56.56,0,0,0-.13.5l-.49,0-.35-.31Zm9.22.34.49,0,.86.78H310l.15-.17.19.48-.47.35h-.17l-1.15-.1ZM293.58,17.1l2.36,1v.16l-.33,0c-1.33-.29-2-.64-2-1Zm11.52.38,1.13-.38,2.45-.13c0,.32-.57.52-1.77.58l-1.64.09-.15.17Zm15.77,3.12a17.24,17.24,0,0,0-10.17,3.49q-1.43,1.71-2.37,1.77-3,1.52-5.07,6.67-2.77,9.63-2.55,14.1c.07,1.2.37,1.78.92,1.75l.05,1a20.89,20.89,0,0,0,2.61,9.06q4.47,7.82,9.27,7.56v.33l-1-.27-.31.34,0,.33a27.51,27.51,0,0,0,10.79,2.06l2.13-.11a4.5,4.5,0,0,0,3.21-1.32l1.5.25,1,0A6.92,6.92,0,0,0,335,64.87l0-.33h-.16l-.81.21,0-.33.81-.21,1.48-.07.46-.52V63.3l-2,.27h-.17a1.55,1.55,0,0,0-.55-1.12l1.15-.06,3-1.64,0-.33-2.33-.53v-.17l.31-.34.33,0,1.35.75.64-.36c0-.68-.49-1-1.37-1.08l-.33,0-2.28.45c-1.1-.06-1.67-.46-1.71-1.23l2.79-.14,0-.5-.16-.15,1,.11c2,1.31,3.22,2,3.55,1.95v.16c-.87.16-1.3.34-1.29.56v.17c0,.16.46.35,1.35.58h.16q2.7-4.9,2.53-8.18v-.16a4.22,4.22,0,0,0-3.67-4.25l0,.33a19.08,19.08,0,0,0-1.44,4l0,.49-.82,0A2.7,2.7,0,0,0,335.27,54l-1-.11L332,57l0,.82-.64.19.22,1.14-.31.35a1.55,1.55,0,0,0-.55-1.12l-.47.51c-1,.5-1.57.85-1.59,1.07l0,.33c3.19.3,4.8.65,4.82,1.06v.17h-.16l-3.71,1.35-1.82-.4v-.16H328l.84.28.31-.34q0-.7,1.41-1.23c0-.35-1.34-.5-4-.44a7.34,7.34,0,0,0-4.37,1.37l-.34-.31-1.48.08-.34-.31c.87-.05,1.3-.18,1.29-.4v-.16l-1.32-.1-1.28.56-.54-1q-3.51-1.92-3.78-3.09l-.81.21h-.33a1.47,1.47,0,0,1-1.52-.9,1.07,1.07,0,0,0,1.11-.71l0-.49-1.63-2.87.1-1.16-.65,0a3.65,3.65,0,0,1-1.75,1.08h-.18v-.16l.28-1,1.8-.1L311,51l-.37-.8.29-.84v-.16l-.17-.16c-.55,0-.83-.06-.84-.28.65,0,1-.22,1-.54l0-.33a7.78,7.78,0,0,0-.8-2.75c-1.11-.25-1.67-.49-1.68-.74v-.16h.16l.17.16.5,0a1.33,1.33,0,0,1,1.12-.55l-.07-1.31a8.88,8.88,0,0,1,.34-2.81q2.48-6.21,2.38-7.85V31.7l.81-.05c.63,0,1.47-.67,2.53-1.93,1.31-.07,1.93-.87,1.85-2.4l-.39-1.13h.16L318,26l.33,0v.17l-.16.17v.16c.61,1.28,1,1.92,1.25,1.91l.49,0,.31-.34-.58-1.62.31-.35.5,0,.51.46v.17l-.1,1.15h.16l.17.16.5,0a2.37,2.37,0,0,1,1.43-.89l0,.81.34.32.82-.05a7.06,7.06,0,0,1,3.5,1,4.34,4.34,0,0,0,3.86,1.44v.16l-.16.18,0,.81q.11,1.89,2.65,3.48l-.12.83,0,.65a2.34,2.34,0,0,0,2.19,1l1.32-.07q4.55-.9,4.43-3.19l0-.66c0-.54-.68-1.49-1.95-2.85l.41-1.67-1.68-.56.46-.69v-.16q-.07-1.52-3.28-3.11c-.14,1.1-.32,1.66-.57,1.67l-.49,0v-.17l.53-2.33a20.42,20.42,0,0,0-13-3.42Zm-2.11,3.72,1.17.27c0,.33-.41.68-1.1,1Zm-12.28,7.06.81-.21h.17l1.19.76.82,0,.15-.18c0,.36-.51.72-1.59,1.07-1,0-1.49-.36-1.54-1.23Zm30-1.41,1-.38h.16l.18.16q.53,1.61,1.56,1.56l-.63.52-1-.11-.66,0-.58-1.62Zm-4.19,1.53,1.13-.38c.77.2,1.17.4,1.18.59l0,.66c-.76.12-1.13.36-1.11.71h-.16l-.18-.16.14-.5v-.16l-.85-.61Zm5.15,1.21a1.88,1.88,0,0,0,1.18.43h.32l1.62-.58.06,1.15L339,34a2.39,2.39,0,0,1-1.68-.57ZM302.84,37c0-.68.54-1.2,1.72-1.57v.17l.32,0,.05.82,1.54,1.23c0,.44.64.63,1.84.56v.17c-1.28.53-1.9,1.28-1.85,2.23l-3.11.16v-.16l.75-1.35-.36-.64v-.16c1-.33,1.44-.63,1.43-.9v-.16l-.34-.31a2,2,0,0,0-1.28.72l-.33,0Zm4.33,4.38c0-.71.38-1.23,1.24-1.55V40l.33,0v.16a1.63,1.63,0,0,0-.74,1.52l-.83-.12Zm-2.91.81.33,0a4.53,4.53,0,0,1,2.19,1l-.49.19a1.09,1.09,0,0,0-1.18-.59l-.33,0-.15.17Zm-1,3.66c0-.38,1.22-.77,3.72-1.18L306.76,46l-.84-.29-3.26.5c-.33,0-.49-.08-.51-.3v-.16l.32,0Zm-1,2.19c0-.22.14-.34.47-.35l.15-.17q2-.11,2.28-.45l0,.32a4.68,4.68,0,0,1-1.93.76h-.16Zm1.51,3.86.63-.52q2.91-.15,4.59,2.88h-.16a3.68,3.68,0,0,1-1.85-.89,3.36,3.36,0,0,1-2.39,1.44l-.86-.78v-.16l1,.44h.16l.31-.34,0-.33q-1.37-1-1.41-1.74Zm31.31-1.31-.46.52v.16l.51.47h.17l1.45-.4v-.17l-1-.6ZM303.44,54.7l.66.13c0,.19-.25.37-.79.53l0-.49Zm2.34.7.32,0,1,.44V56l-.15.17,0,.5q0,.48,2.49.36v.16a11.38,11.38,0,0,0-3.7,1.51h-.16l.3-.51-.86-.78,0-.32c.66,0,1-.16,1-.38v-.17Zm8.11,4.33c.41,0,.83.73,1.27,2.24l2.29-.28,1.15.1V62l-1.14.39-3.79-.3h-.17v-.16Zm8.56,3.5.49,0a4.34,4.34,0,0,0,2.53,1.19c-.59,1.23-1.16,1.86-1.7,1.89a5.31,5.31,0,0,0-1.3-2.73Zm5.37,2c0-.76.53-1.29,1.72-1.57h.16c0,.8-.48,1.37-1.55,1.73H328Zm-1.77.75,1.65.08.65-.2h.16a.88.88,0,0,1-.62.69l-1.81-.07h-.16l0-.33Zm1.9,4.83-.65.2q-17.19,1.23-17.15,1.88a5.59,5.59,0,0,0-3.16-.82l-7.82,1.4a15.37,15.37,0,0,1-4.14-.77v.33l.18.15a20.55,20.55,0,0,0-.7,5.46l0,.49a1.14,1.14,0,0,0,.71,1.11l2.78-.15,36.19-2.38,4.11.11.32,0,.47-.52,1.34.43.82,0c.42-.24.63-.52.61-.85a3.22,3.22,0,0,0,2.35.86l1.31-.07,5.54-.78.49,0c.36,0,.54-.74.55-2.17-.07-1.2-.26-1.79-.59-1.77l.42-1.34-.24-1.47-.32,0-2.32-.21c-.43.08-.64.25-.63.53l0,.49.17.15,1.29-.39h.17l-.43,1.17.7,1v.16l-.17-.15c-2-.17-3-.39-3-.67V72l.15-.17,1.16.1.49,0,.15-.18c0-.16-.45-.36-1.34-.58l.11-1v-.17l-.17-.15q-1.63.08-1.56,1.56a7.27,7.27,0,0,0-4.33-1.09l-.49,0a2.1,2.1,0,0,0-1.92,1.08,5.22,5.22,0,0,0-3.33-1H336l-5.55.62Zm-11.32,3.71c0-.74.43-1.26,1.4-1.55l.38,1a1.84,1.84,0,0,1-1.12.55Zm18.05-.45,1.5.41v.16a2.44,2.44,0,0,1-2.06,1.43l0-.33.77-1-.34-.31v-.16ZM345,75.68q.07-.83.45-.84l.66,0q.49.11.87,1.11l-.31.34-.32,0A2,2,0,0,1,345,75.68Zm-25.08,1v-.16l2.65.35.32,0a2.22,2.22,0,0,0,1.45-.57l0,.66c-1.85.32-2.76.64-2.74,1-.69,0-1.26-.38-1.71-1.23Zm16.41-66.9L336,11.42l-.33,0-.17-.16c-.16-.86-.34-1.29-.56-1.28l-.49,0-.16.17a8.58,8.58,0,0,0,.47,2.6l1.77-.59.69.62V13l-1.62.41-1-.11.2,3.77,10.82-.41c1.6-.19,2.51-.68,2.72-1.45q.32,0,1.05,1.26l1.46-.24L375.5,15.1a89.56,89.56,0,0,0,10.44-1.37l.53.8,3.11-.33c.54,0,.79-.64.72-1.84l-.06-1.15q-1.33-4.36-4-4.22l-1.14.06a5.88,5.88,0,0,0-2.57,1.12c0-.41-.91-.64-2.67-.69l-11.62.78c-.95,1.36-1.63,2.06-2,2.08l.39-2-8.69.45Zm35.46,2.57c.1-.66.24-1,.44-1,.64.73,1.2,1.08,1.7,1.06v.32l-.15.18a4,4,0,0,1-2-.56Zm-4.07.71,1.83.56,1.3-.23.38,1-.31.35h-.16c0-.66-.16-1-.38-1l-1.78.42-.82,0Zm-11.39,5.36a45.56,45.56,0,0,0-6.37.66c-3.47.19-5.33,2.25-5.59,6.21l.05,1a4.54,4.54,0,0,0,.94,2.26,2.52,2.52,0,0,0-.71,2c.25,1.74.52,2.6.79,2.58.74-.42,1.11-.71,1.1-.88,0-.46-.43-1-1.23-1.57l0-.5a2.87,2.87,0,0,0,1.62-.57H347q.09,1.64,1.56,1.56l-1.73,1.41v.16l.36.47.47-.35h.16l.39,1.13v.16l-3.15-.49-.28.84.87,10.3-.11,1.16c1,.08,1.49.22,1.5.41-1,.3-1.45.54-1.44.74l.27,5.07.45,2.28c-.22,0-.36.57-.41,1.67l.38,1,.65-.19c1,.19,1.5.44,1.51.74l0,.49-.48.19-1.5-.42-.31.35,0,2.46c.15.76.33,1.14.55,1.13a3.79,3.79,0,0,1,2.06-1.59l.5.14v.16l-2.87,1.63q.16,3.08,2.18,4l1.26-1H350l0,.49q-1.14.27-1.11.72c0,.3.46.5,1.34.59l1.13-.39a6.27,6.27,0,0,1,3.68-1.84,2.61,2.61,0,0,1,.87-2.18c0-.3-.51-.44-1.5-.41l-1.73-1.72h-.16q0,.54-.78.87V61l-.17-.15a6.53,6.53,0,0,1,2.56-1.29L354,59c.28-1,.64-1.52,1.07-1.54l.67.13h.16l0-.82-.75-8,.21-2.15c0-.65.88-1,2.74-1.12a11.26,11.26,0,0,1,5,1.21c3.37,2,5.28,3,5.74,3l0,.49h-.16l-1-.11h-.16l-.16.18,0,.32q4.56,5.52,4.59,6l2.09-.77.5,0c-1.07.61-1.58,1.29-1.54,2.06l0,.32A2.83,2.83,0,0,0,375.44,61l-.13.67c0,.65.78,1.32,2.24,2l-.3.51q0,.26,1.35.75l1.07-1.53.82,0,.39,1.13,1.75-.91c1.85-.37,2.75-1,2.7-1.78v-.17a5.81,5.81,0,0,0-1.81-3.19v-.16l.5,0,0-.49-.35-.47c-1.55-.17-2.33-.4-2.34-.7l.93-1,0-.49-.19-.48q-1.9-4.34-9.58-10.5c.17-.89.37-1.34.58-1.35l.33,0,.53.63q1.51-.07,2.77-3.59l1.22,1.41H378q.28,0,.45-.84a11.27,11.27,0,0,0,4.25-9.92l-.06-1.15q-.27-5-5.88-8.73Q373.4,17.52,356.28,18.41Zm14,3.7,2.17.71a.88.88,0,0,1-.62.69,3.74,3.74,0,0,0-1.84-.72v-.17ZM372.07,25c2.14-.55,3.42-1.06,3.87-1.52L377.06,26A6,6,0,0,0,375,27c-.05-.9-1-1.51-2.89-1.82Zm-18,1.6q5.55-.91,5.5-1.77h.16l0,.66q9.68.51,11.75,1.68c.05,1,.75,1.83,2.09,2.36-.59,1.23-1,3.5-1.12,6.79v.17l-.83-.12h-.16l-2.08,1.1,0,.49,1.32-.07c0,.22-.31.46-.79.7L367.34,38l-.32.35v.16l.52.47h.16l-.13.5v.16l1.8-.09.52.46v.17L368.42,40l-.5,0-.31.35,0,.32c.07.22.35.42.85.62a3,3,0,0,0,1.6-.91l0,.49c0,.77.6,1.12,1.69,1.06a1.41,1.41,0,0,1-1.26.89l-2.47,0c-.23-1.31-.65-1.94-1.25-1.91-.33,0-.48.13-.47.35l.08,1.64-.65,0,0,.49.35.31.78-.7.33,0Q367.18,44,366,44l-.49,0c-.44,0-.76-.95-1-2.91l0-.32h.16l.18.15.49,0a2.3,2.3,0,0,0,1.74-1.24,4.4,4.4,0,0,0-3.51-1.13l-8.51.61h-.16a12.45,12.45,0,0,0-1.17-3.55c0-.19.25-.37.79-.53l-.38-1,.07-1.8c0-.44-.2-.65-.52-.63a11.9,11.9,0,0,0,.59-4.31Zm14.73-1.1.47-.52.65,0c.82,0,1.27.1,1.34.43l-.48.19Zm-20,4c.4-1.33,1.08-2,2-2.08h.33a4.58,4.58,0,0,0-1.32,3.19C349.44,30.49,349.09,30.12,348.81,29.48Zm-.84,5.8c0-.41.83-.9,2.55-1.45l.33,0a1.77,1.77,0,0,0,.71,1.11l-3.26.34h-.17l-.15.17Zm30.45,1a4.58,4.58,0,0,1,2.87-1.63h.16v.16l-.15.18q-2.28.69-2.22,1.59v.17l.18.15h-.17Zm-31,1.79c.11-.53.31-.81.61-.86l1.32.1L348,38.89c-.19,0-.37-.26-.53-.79Zm3.18,10.51,1.31-.07,0,.65.38,1h-.16l-.16.17a3.9,3.9,0,0,1-1.39-1.57Zm-4.14,5.63.31-.34H347c.22,0,.46.3.7.78l-.31.35Zm4,7.19h.16a1.39,1.39,0,0,1,.88,1.1c0,.55-.12.88-.44,1l-.37-.8-1.61.58h-.17l0-.65c1.09-.06,1.62-.47,1.58-1.23Zm2.08,2a1.11,1.11,0,0,1,1.11-.71l.33,0,.34.31,0,.82h-.16Zm29,4.4-20.92,2.08-1.81-.07,0,.33,2,1-.31.35-.5,0-1-.94c-.57,1.24-1.24,1.87-2,1.91v.17l.72,1.11-.86,2.51v.17l12-.3,6.22-.33L386.53,75l0-.32h-.33v-.16l1.3-.4h.16l-.28.84.34.31.33,0A4.44,4.44,0,0,0,390.08,74l.33,0c0,.76.6,1.12,1.7,1.06l.82,0,.31-.35L393,69.88l-.35-.31a1.92,1.92,0,0,0-1.12.55h-.16l-.35-.31v-.16l.16-.18c1.18-.36,1.77-.66,1.75-.91l0-.65-.35-.31-.65,0a2.7,2.7,0,0,1-1.59,1.07h-.16v-.17l.16-.17v-.16q0-.7-5.94-.51Zm-28,1.8a29.21,29.21,0,0,0-7.31,1.7v-.17c0-.25.52-.49,1.6-.74l0-.33-10,.52-.31.35,0,.49.6,5.06-.11,1v.17l.18.15.64-.2,5.91-.14c1.08-.22,1.61-.58,1.59-1.07h.16a5,5,0,0,0,3.17,1,11,11,0,0,0,4.68-1.73l0,.49a2.5,2.5,0,0,0,1.93-.92v-.16l-.17-.16-.81.21.09-1.32,0-.33-2-.38,2.46-3.25-.35-.31Zm-14,2.87c0-.5.34-.84,1.09-1,1.21,0,1.82.18,1.83.4l-2.76.64Zm10.71.58c0-.19.26-.31.8-.37h.17l-.42,1.5c.14.54.43.8.86.77l0,.33-1.14.22h-.16l0-.82c0-.32-.41-.47-1.18-.43,0-.19.36-.43,1.12-.71h.16Zm9.55.49,2-.27c.55,0,.88.12,1,.44A4.35,4.35,0,0,1,360.4,75h-.16Zm18.72-66-.31.35.12,2.29.24,1.47-.1,1.15.08,1.64c0,.16.24.32.68.46l3.76-.36,1.33.25.31-.34v-.33c-.88-.06-1.33-.2-1.34-.42l2.13-.11.31-.35c0-.35-.91-.69-2.68-1,0-.21.36-.4,1.12-.55,1.32.15,2,.61,2,1.37l-.76,1.19v.17l3.28-.17.15-.18a12.53,12.53,0,0,0-2-2.85l-4.31-.76h-.16c-.28,1-.53,1.5-.74,1.52,0-.66-.22-1-.55-1l-1.8.09A3,3,0,0,0,380,9.61h.33l1.19.76L382,10l-1.19-.76V9.08l.16-.17,1.81.23h.16c.2,0,.4-.35.61-1a5.12,5.12,0,0,1,1.85.89c2,2.2,3.54,3.27,4.61,3.21h.16l.31-.34-1.21-1.09v-.16l3.75-.53h.16l-.31.35.41,1.62,1-.22h.16a2.16,2.16,0,0,0-.59,1.35l0,.33.35.47.16-.17,4,.28.65,0q.12-1.48.42-1.5h.16l.51.3,1.29-.39v.16l.17.16c0,.16-.2.33-.62.52l.34.31,1.47-.08.32-.34-.09-1.64,1.16.27.49,0a4.76,4.76,0,0,1,2.07-1.25l.82,0,0-.49-.7-.78V9l1.14-.23H408a1.68,1.68,0,0,1,1.7,1.06c-1.66.08-3.63,1.23-5.9,3.43v.16H404l.16-.17,1.64-.09,11-.24H417a19.71,19.71,0,0,0,6.66-1.34,3.88,3.88,0,0,0,3,1l1.64-.09.31-.35-.27-5.24A3,3,0,0,0,427.7,5l-3.27.34-1,.05-14.93.45-.49,0a26.11,26.11,0,0,0-8.77,1.77c0-.6-.66-1-1.87-1.21l-.82,0-1,.38-4,2.34c-.9-1-1.48-1.56-1.72-1.55l-.29.84-.49,0,.29-.67-1.35-.75-1,0-1.26,1.22c0-.65-1.2-1-3.51-1.13l-3.1.33Zm8.07.4.48-.19,1.84.72c0,.77.39,1.13,1.05,1.1v.16a1.84,1.84,0,0,0-1.12.72l-.33,0v-.17c-1.26-1.05-1.9-1.84-1.93-2.36Zm9.69,0,.8-.53.32,0,1,.93L397,9.05l-.71-1Zm-.61.86,1.17.26v.17l-.48.19q0,.33.51.3l0,.33-.66,0a1.48,1.48,0,0,1-.86-.77Zm26.8.4c-.05-1,.52-1.62,1.7-1.9.2,0,.37.26.54.8,0,.27-.71.64-2.08,1.09Zm-24.91,1.14A1.68,1.68,0,0,1,399,9.27l.33,0a3.94,3.94,0,0,0-.72,1.84h-.17c0-.44-.3-.64-.85-.61ZM392,12.42a1.91,1.91,0,0,0-1.12.56l1.35.75.33,0,.31-.35,0-.49-.52-.46Zm22.21,3.77a36.12,36.12,0,0,0-5.38.77l0,.33.84.45-.31.34-.49,0a1.76,1.76,0,0,1-1.71-1.22h-.32c0,.44-.3.68-.95.71a9.58,9.58,0,0,0-2.83-.67,6.72,6.72,0,0,0-3.23,1,24.93,24.93,0,0,0-5.78-.52l-2.13.11q-4.18.23-5.4,3.57c.08.43.25.64.52.63l1.48-.08.16-.17c.67.35,1,.66,1,.93l-.64.36-1.83-.56-.66,0-.31.34,1.54,1.07,0,.49c-1,.6-1.53,1.07-1.57,1.4l.65,9.16.21,4.1-.06,2,1.18.43h.16q2.81-3.77,3.9-3.82v-.16l-.87-.77v-.17c.65,0,1-.16,1-.37a1.2,1.2,0,0,0-1-.61v-.16h.16c1.34.4,2,1.13,2.09,2.19l0,.49a2.59,2.59,0,0,1-.58,1.51l-1.83-.56-1,.22c-.52,2.11-1,3.17-1.48,3.2h-.34l-1.15-.1v.16l-.16.18.05,1,.62,2.43-.23,1.82v.16l2.31.21a19.14,19.14,0,0,0,4.38-1.22v-.16l-.35-.31a2,2,0,0,1,.74-1.52l.5,0,1.19.93.62-.69-.07-1.48.31-.34,3.11-.17,9.65-.83,3.46.15v-.17l-.22-1c0-.82.64-1.4,2.05-1.75l.33,0c-.94,1-1.39,1.8-1.36,2.38V42l.34.31,1.8-.09q4.26-.23,4.09-3.5v-.17a2.91,2.91,0,0,0-.75-1.76q-2.13-2.19-7.16-1.93a27.77,27.77,0,0,0-7.64,1.72l0,.32a7.21,7.21,0,0,1,2.48.37v.16l-.32,0q-.46,1.34-.75,1.35l-.33,0-.17-.16v-.16l.15-.17V38l-1.87-1.22.14-.5v-.16l-1.46.41a19.51,19.51,0,0,0-4.8-.74l-1,0-.16.18c-.51,1.77-1.12,2.68-1.83,2.72h-.16a12.35,12.35,0,0,0,1.4-4.51A6.6,6.6,0,0,0,395.06,31c.87,0,1.29-.56,1.23-1.54l-.53-3.91c0-.77.87-1.2,2.73-1.3l7.56.1.33,0a6.74,6.74,0,0,0,3.55-1.17h.16a.54.54,0,0,1-.14.5.55.55,0,0,1-.48.19l0,.33,6.56-.18q4.59-.24,5.09-3.22V20.6q-1.56.09-2.1-2.52l0-.32.33,0,.84.45.31-.35v-.16c-.63-1-2.73-1.53-6.32-1.48Zm-26,3.16a2.56,2.56,0,0,1,2.08-.93l3,.5v.17l-.81.2-4.1.05Zm17.67-1.25,2.17.54v.16l-.31.35-2.16-.38V18.6Zm-4.95,2.72.81-.21,1-.05c.32,0,.5.25.53.8l.33,0,0-.33h.16v.17a2.46,2.46,0,0,1-1.91,1.08c-.16-.87-.45-1.29-.89-1.27Zm-11.47,3.73,1,.12h.17l.15-.18L391,26c-1-.22-1.5-.47-1.51-.74Zm3.15,16.1q.94,0,3.51-2l.84.44c0,.22-.41.41-1.28.56a1.13,1.13,0,0,0,.72,1.12l1.31-.07v.33q-.06.33-.78.69l-1.81-.07H395l-.16.17.37.81v.16l-1.65-.24v.16l-.16.17.05.82-1.17-.43,0-2.46v-.17Zm14.06-1.39.48-.19,2.18,1h.17q.06,1.09-1.56,1.56h-.17V41.5L408,40c-.15-.43-.6-.63-1.34-.59ZM394.9,40.37a2.56,2.56,0,0,0-2.08,1.09v.33l1.32-.07c.54,0,.86-.21,1-.54l0-.66Zm1,6.36c-.74,1-2.25,1.59-4.51,1.71l-1.64.09a5.38,5.38,0,0,1-2.15-.22v.16l-.16.18.05.82.86.77a12.78,12.78,0,0,0-.59,4.47l.11,2.13a27.61,27.61,0,0,0,.92,5q.15,2.79,8.18,2.37l2.95-.16a27.06,27.06,0,0,0,6.67-1.17,57.79,57.79,0,0,0,9.39.5l2.3-.12q6.23-.33,6-4.92l-.2-.81c-1.17-1.8-3.94-2.59-8.34-2.36l-4.91.26-.46.68v.17l-2.64-.19-.66,0c-.84.05-1.32.29-1.44.73a18.07,18.07,0,0,0-6.59-.47,2.47,2.47,0,0,1-2.56-1.84c.63-.5.88-1.94.76-4.31L397.06,47l-.35-.31Zm-5.14,8.64c-.09-1.85.73-2.83,2.48-2.92q-.51,2.82-2.31,2.91Zm5.79,3.81L397,59l1.33.25c-.9,1.69-1.51,2.55-1.84,2.57l-.17-.16.61-.85-.05-1-.35-.47Zm18.31,1.5.81-.21.66,0,.06,1.16.35.47v.16l-.49,0a4.69,4.69,0,0,1-1.4-1.57Zm14.38,4.83a14.51,14.51,0,0,0-5,1.91h-.16c0-.22.31-.4.95-.55l0-.65-12.14.31a75.44,75.44,0,0,0-9,1.12l0,.33.49,0,0,.33-.48.19a2.37,2.37,0,0,0-1.33-.25v-.17l.3-.51,0-.32-.17-.16-1.47.24-2.14,0a5.51,5.51,0,0,0-3.87,1.35h-.16l-1.37-1.08-.33,0c.05,1-1,1.53-3,1.64l-.33,0c-.17,0-.4-.37-.72-1.12h.17l-.35-.31-7.37.38-.31.35.24,4.58c0,.17.4.37,1.18.6a18.92,18.92,0,0,1,4.37-1.22l.49,0a4.76,4.76,0,0,1,3.85,1.28,23,23,0,0,0-4.46-.43l-.82,0a10.86,10.86,0,0,0-4.36,1.37l0,.33,8.05.07,20.8-1.25h.16a3.22,3.22,0,0,1,2.55-1.61h.16l0,.33c-1.19.34-1.77.64-1.76.91v.17l.17.15h.17l.15-.17,1.31-.07,2.64.19h.33a1.09,1.09,0,0,0,1.1-.88l-.36-.64v-.16c.49-.11,1.1-1,1.84-2.57.72.24,1.12.49,1.19.76v.17l-1,.21,0,.33.83.12,5.24-.27,1.63-.25c.05.87.56,1.28,1.54,1.23l0,.49-.48.19c-.55,0-1.23-.43-2.05-1.37h-.16l-.16.17-.45.68L425,72l-1-.77c-.22,0-.31.29-.28.84l-1.31.06-.63.53q0,.85,9.88.47l.3-.51,0-.5-.7-4.07.26-1.33a2.53,2.53,0,0,0-2.21-1.2ZM393,69.22l1.45-.41h.17l.17.16-.78.7.56,1.44v.17c-1.23-.68-1.87-1.35-1.91-2Zm16.49,1.27c0-.28.31-.46,1-.55.1-.66.24-1,.44-1l.33,0c1.09,0,1.66.32,1.69.9V70l-1.65.09-1.77.58Zm-13,2.5c0-.39.56-.69,1.75-.92h.33l.52.46v.33Zm3.13.16a.87.87,0,0,1,.94-.71l1.32-.07v.17c-.06.33-.38.51-.95.54ZM416,72.78l.48-.19h.33l-.47.51ZM439.22,4.54,417.43,5.68l-.16.17.37,3.92V12.9l.18.15.15-.17,7.71-.24,2.61-.3V12q-1-.27-1-.6l0-.49c1.66.27,2.73.76,3.2,1.48l1.14-.23,20-1.05,20-.87v-.17l.15-.17L471.34,3l-1.29.4-4.61-.26-.82,0a3.36,3.36,0,0,0-1.62.57l.56,1.29,0,.33c-.63,0-1.32-.59-2.07-1.87L449.87,4a6.28,6.28,0,0,0-3.23,1,2.44,2.44,0,0,0-2-.71l-1.15.06c-2.38.48-3.56,1-3.53,1.5h-.17c-.15-.87-.34-1.3-.56-1.28ZM427.33,6.47l1.49.25v.17l-.61,1-.32,0c-.25,0-.43-.3-.55-1ZM419.9,8.84l1.45-.41.06,1.15-1.14.06-.35-.31Zm36.28-.42L457.91,7l.37.8a2.26,2.26,0,0,1-1.75.92Zm4.14.6,2.09-.77.06,1.15-.65,0L460,9.2c-.32,0-.47.35-.44,1l-.32,0-.17-.16.26-1.16.83.12ZM437,11.55q.8-1.2,1.41-1.23l.68.3c0,.54-.45.84-1.44.89ZM453.35,14l-5.07.43-2.13.11-2,.27v-.16l-.49,0c.05,1-.47,1.53-1.55,1.73l-.37-.8-3.19,1.81h-.17l.14-.5c0-.28-.47-.69-1.38-1.25l.31-.5V15l-.16.17-6.4.18a15.71,15.71,0,0,0-4.39.88c-.84.62-1.22,1.74-1.14,3.35l0,.66c.06.54.18.81.37.8.07,1.34,2,2,5.86,2l2.13-.11q5.66-.3,6.76.47l.71,16.72a44.91,44.91,0,0,0,1.19,7,10.35,10.35,0,0,0-.64,3.48,4.31,4.31,0,0,0,1.65,3.2l-.66,0c-.65,0-1,.49-.91,1.36l.05,1q.25,4.71,5.23,5.81l.66,0a4.57,4.57,0,0,0,3-2l-.35-.31-.82,0-2.08.94h-.17l.61-.85c0-.25-.29-.39-.84-.45v-.16l.49,0,3.62.14c.55,0,.78-.86.69-2.5a3.78,3.78,0,0,0-.74-1.76c.32,0,.48-.14.47-.36l-.1-2-.18-.16-1.45.41a1.05,1.05,0,0,1-1-.61v-.16h.16l.18.16h.16l2.1-.77L450,22.38l.17.16,3.41-.67c1-.06,1.57-.85,1.68-2.4a11,11,0,0,0,4,1.11v.16c-.84.05-1.32.29-1.44.74v.16l.34.31,1.16-.06c2.18-.17,3.26-.5,3.23-1v-.18l-1,.05-1.13.23v-.17l-.33,0,0-.33.81-.2,2.49.52a4.9,4.9,0,0,0,1.79-3.54l0-.49Q465,13.38,453.35,14Zm-6.05,3.61c-.06-1.1,1-2,3.3-2.81-.85,2.68-1.82,4-2.91,4.1l-.49,0v-.17l.49-.19Zm-4.91.42c0-.19.25-.37.79-.54l1.83.4c0,.55-.45.84-1.44.9h-.32l.12-.82Zm16.31.79a2.77,2.77,0,0,1,1.9-1.25l.5.13c-.74.92-1.32,1.39-1.73,1.41Zm-23.34,3c.43-1.22,1.11-1.86,2-1.91.5.19.78.4.85.61l0,.33-1,.05a3.24,3.24,0,0,1-1.75.92Zm8.76.86c.76,0,1.16.26,1.2.92l-.29.84.17.15c1.87.18,2.82.51,2.85,1l-.31.35a4.53,4.53,0,0,0-3.34-1l.3-.51-.57-1.61ZM444,26.94h.17L447,28.1c0,.22-.3.46-.78.7l-1.82-.23.12-.83v-.33q0-.33-.51-.3Zm.36,3.76,2.34.7v.17L445.1,32h-.16v-.17h.33l0-.33c0-.33-.35-.47-1-.44v-.16Zm.79,2.43.49,0,2.85,1.17,0,.65-.16.17-1.32-.25-.31.34a2.26,2.26,0,0,1-1.58-1.89Zm-.72,11.37.82,0c.67.84,1.13,1.26,1.38,1.24l-.47.52a3.94,3.94,0,0,1-2-.55Zm2.8,3.31,1.65.07-.29.68L447,48.48Zm-3.46,3,.47-.52,2.79-.14,0,.49c-1.31.07-1.95.37-1.92.92a1.57,1.57,0,0,0-1.36-.74Zm-5.64,14.59L421,66.43q-.49,0-.48.36l.07,1.31a4.86,4.86,0,0,0,1.14,2.9q-1,0-1,.54l.09,1.8.35.31,1.47-.08q9-.46,14.57-1.09l4.44.09c.19-1.1.38-1.66.57-1.67l.33,0v.17l-.3.51,0,.65.34.31,2-.1c1.09-.06,1.62-.47,1.58-1.23a4.93,4.93,0,0,0,2.34.86,1.29,1.29,0,0,0,1.26-1l.52.46L450,72v.18l24.57-1.29.31-.34-.05-1a1.49,1.49,0,0,0-1.06-1.43l.78-.86-.25-1.63.08-1.65q-9.37,0-17.89.45a54.82,54.82,0,0,0-11.26,1.41,46.73,46.73,0,0,0-7.09-.45Zm4.3.59c1.79.57,2.68,1,2.7,1.34v.17H445l-1.34-.42-.46.52c-.31,0-.55-.47-.73-1.28ZM437,68.4c0-.41.51-.82,1.58-1.24h.16a3.56,3.56,0,0,1-1.07,1.53h-.16Zm-9.48,1h.17l.22,1.14,0,.32-.49,0c-.47-.52-.86-.78-1.19-.76V70h.16l.67.13c.33,0,.48-.25.46-.68ZM437.94,71l.46-.52h.33c1.2-.07,1.81.07,1.83.39V71c0,.19-.25.37-.79.53C438.56,71.41,438,71.22,437.94,71ZM461.75,3.36l-.16.17.27,2,.2,3.77c0,.79.23,1.22.56,1.28l3.77-.19a4,4,0,0,0,2.57-1c.11.54.29.81.54.79l16.22-.85a3.86,3.86,0,0,1,3-1.47l0,.33c-1.3.2-1.95.45-1.93.76l.34.31,4.1-.22L493,6.49h.16l.2.65c0,.22-.35.67-1.08,1.37v.16l13.62-.22A109,109,0,0,0,519.6,7.06l-.78-5.38.11-1.15V.36L466.34,3.28Zm17.09.09,1-.05c.19,0,.37.31.55,1-.27.78-.52,1.17-.76,1.18l-.33,0-.17-.15.12-.83,0-.65Zm17.45.73,1.13-.39V4c1.56.44,2.35.89,2.37,1.36-2.31-.29-3.48-.61-3.5-1ZM487,11.89l-.47.36c.09,1.74-.46,2.65-1.66,2.71h-.16l0-.33c.84-.72,1.24-1.35,1.22-1.86v-.17l-.18-.15A14.72,14.72,0,0,0,476.88,16q-8.13,7.86-7.47,20.44l.08,1.64a25.93,25.93,0,0,0,5.55,15c3.19,2.79,5.5,4.14,6.95,4.07h.16l-.13.5V58q1.25,1.62,12.76,2,5.61-.3,6.91-2.83V57l-.81,0-.35-.33v-.16l.3-.51,0-.33-.17-.15.65-.2a21,21,0,0,1,5.12.55,5,5,0,0,0,2.38-1.6q6.84-7.38,6.16-20.37a28.83,28.83,0,0,0-2.16-9.9c-1.11-.3-1.68-.6-1.69-.9l.62-.69,0-.49q-6-11-22.05-10.18Zm2.23,1.69,1.31-.07c.55,0,.88.12,1,.44v.33a1.07,1.07,0,0,1-1.11.71l-1.14.06Zm-11.82,6.53A2.06,2.06,0,0,1,479,18.88l.49,0c0,.76-.59,1.18-1.9,1.24Zm1.52,16.35a24.3,24.3,0,0,1,.9-7.77q2.61-9,11.34-9.46h.16q8.07-.42,11.89,7.43l1-.38.32,0-.22,2,1.12,9,.06,1-.17,3.13a.58.58,0,0,0,.19.49.57.57,0,0,0,.5.13v.17c-1.81.94-2.68,2.25-2.59,3.91l0,.49.17.16c-2.44,1.58-3.62,2.95-3.56,4.13l-.67-.3c-1.85.29-2.75,1-2.69,2.12q-6.51.33-14.66-4l.26-1.16v-.17l-1.46-2.71-5.16,1.91h-.16a5.73,5.73,0,0,1,3.66-2.16l1.15-.06.16-.18A28.82,28.82,0,0,1,478.93,36.46Zm26-12.2c0-.36.52-.6,1.61-.74l2.31.2v.17l-2.26.94ZM470.42,34c.14-.44.29-.67.45-.68H471c.88.72,1.5,1.07,1.85,1.05v.17l-.15.17Zm5.14,1h.17l1.37,1.08-.31.34-1.8.09-.17-.15.14-.5c.41-.33.62-.61.6-.85Zm28.61,19.2c0-.28.31-.46,1-.55l.82,0,.34.31,0,.49-.33,0-1.33-.26-.32,0-.16.17Zm-27.78,9.17q-11.62.74-11.6,1.27l.43,4.91L465.13,71l.67.29,19-1.16,1.14-.06a3.22,3.22,0,0,1,1.9-1.41q.82.15.84.45c0,.33-.19.5-.63.52l0,.33,6.73-.35,26.71-1.24c.76-.15,1.13-.33,1.12-.55l0-.82-.36-3.59.06-2L522.1,61l-.15.17-13.77.56a10.72,10.72,0,0,0-5.83,1.62l-.66,0-1.21-1.25-2.78.31Zm9.71,3.44c0-.27.52-.52,1.61-.74v.33a1.36,1.36,0,0,1-1.26.88l-.33,0Z" transform="translate(-0.19 -0.36)"/></svg>